<svg version="1.1" id="Layer_1" xmlns="http://www.w3.org/2000/svg" xmlns:xlink="http://www.w3.org/1999/xlink" x="0px" y="0px"
	 width="100%" viewBox="0 0 368 368" enable-background="new 0 0 368 368" xml:space="preserve">
<path fill="#000000" opacity="1.000000" stroke="none" 
	d="
M249.000000,369.000000 
	C166.028015,369.000000 83.556038,369.000000 1.042029,369.000000 
	C1.042029,246.403030 1.042029,123.806030 1.042029,1.104520 
	C123.555252,1.104520 246.110611,1.104520 368.833008,1.104520 
	C368.833008,123.666481 368.833008,246.333221 368.833008,369.000000 
	C329.139435,369.000000 289.319733,369.000000 249.000000,369.000000 
M229.556244,77.912109 
	C226.959534,76.137848 224.908936,76.860817 223.167389,79.254349 
	C221.999908,80.858910 220.819855,82.461472 219.540039,83.975868 
	C214.841721,89.535370 206.674347,94.751625 199.528290,91.081085 
	C181.708282,81.927917 163.926361,72.698685 146.020645,63.716274 
	C143.055008,62.228565 139.524582,61.001331 136.284256,61.068012 
	C116.281647,61.479622 97.816483,68.034630 79.674835,75.829102 
	C66.197418,81.619614 54.293365,89.558380 44.935474,100.916626 
	C33.349529,114.979195 25.687840,131.171432 20.082277,148.396774 
	C14.997790,164.020905 11.965420,180.070450 15.374949,196.307709 
	C22.013655,227.923325 36.439018,255.605698 59.835773,278.218536 
	C61.518509,279.844879 64.440979,280.999786 66.790695,281.006073 
	C125.277054,281.162140 183.763947,281.155487 242.250504,281.052185 
	C244.388260,281.048431 246.784653,280.184967 248.610748,279.018250 
	C253.790375,275.708923 259.100708,273.652252 265.447021,273.927216 
	C273.929596,274.294708 282.446198,273.827179 290.935516,274.105499 
	C297.028290,274.305267 302.780426,273.711945 308.168945,270.603668 
	C316.999664,265.509796 326.553925,261.405884 334.624176,255.320984 
	C346.260071,246.547638 350.892334,232.991882 354.717255,219.505966 
	C358.270966,206.976303 357.521820,194.112518 355.789185,181.393066 
	C353.669708,165.833893 349.663910,150.904846 339.395203,138.363434 
	C329.231964,125.950874 316.621582,118.610107 300.198761,119.299797 
	C292.563599,119.620438 284.956207,120.556839 277.326691,121.073105 
	C271.432495,121.471962 267.050568,118.784714 264.684906,113.341087 
	C262.183441,107.584999 260.011627,101.681541 257.382355,95.987221 
	C256.391388,93.841064 254.916794,91.424080 252.982834,90.295113 
	C245.575195,85.970802 237.891327,82.119690 229.556244,77.912109 
z"/>
<path fill="#FEFDFD" opacity="1.000000" stroke="none" 
	d="
M229.933395,78.002029 
	C237.891327,82.119690 245.575195,85.970802 252.982834,90.295113 
	C254.916794,91.424080 256.391388,93.841064 257.382355,95.987221 
	C260.011627,101.681541 262.183441,107.584999 264.684906,113.341087 
	C267.050568,118.784714 271.432495,121.471962 277.326691,121.073105 
	C284.956207,120.556839 292.563599,119.620438 300.198761,119.299797 
	C316.621582,118.610107 329.231964,125.950874 339.395203,138.363434 
	C349.663910,150.904846 353.669708,165.833893 355.789185,181.393066 
	C357.521820,194.112518 358.270966,206.976303 354.717255,219.505966 
	C350.892334,232.991882 346.260071,246.547638 334.624176,255.320984 
	C326.553925,261.405884 316.999664,265.509796 308.168945,270.603668 
	C302.780426,273.711945 297.028290,274.305267 290.935516,274.105499 
	C282.446198,273.827179 273.929596,274.294708 265.447021,273.927216 
	C259.100708,273.652252 253.790375,275.708923 248.610748,279.018250 
	C246.784653,280.184967 244.388260,281.048431 242.250504,281.052185 
	C183.763947,281.155487 125.277054,281.162140 66.790695,281.006073 
	C64.440979,280.999786 61.518509,279.844879 59.835773,278.218536 
	C36.439018,255.605698 22.013655,227.923325 15.374949,196.307709 
	C11.965420,180.070450 14.997790,164.020905 20.082277,148.396774 
	C25.687840,131.171432 33.349529,114.979195 44.935474,100.916626 
	C54.293365,89.558380 66.197418,81.619614 79.674835,75.829102 
	C97.816483,68.034630 116.281647,61.479622 136.284256,61.068012 
	C139.524582,61.001331 143.055008,62.228565 146.020645,63.716274 
	C163.926361,72.698685 181.708282,81.927917 199.528290,91.081085 
	C206.674347,94.751625 214.841721,89.535370 219.540039,83.975868 
	C220.819855,82.461472 221.999908,80.858910 223.167389,79.254349 
	C224.908936,76.860817 226.959534,76.137848 229.933395,78.002029 
M107.035004,201.607956 
	C106.128258,209.157455 104.389694,216.715714 104.469032,224.254837 
	C104.717941,247.907318 128.927704,266.913300 152.207748,263.605164 
	C182.403625,259.314270 203.934464,218.025711 180.968613,189.793503 
	C177.297333,185.280350 173.931473,180.518768 169.897598,175.174011 
	C185.892868,173.897293 195.674255,164.497070 204.378845,153.601883 
	C205.977829,151.600510 207.213440,149.015411 207.757584,146.512939 
	C211.010361,131.553207 205.839310,118.656349 195.340408,108.729179 
	C185.097092,99.043701 171.483994,97.118469 157.944397,99.664711 
	C134.575882,104.059357 118.126076,136.781036 137.315674,160.445007 
	C138.551132,161.968536 139.498230,163.722290 140.650146,165.317917 
	C142.924591,168.468445 142.742859,169.785385 138.507645,171.563538 
	C124.612213,177.397507 113.290527,186.417068 107.035004,201.607956 
M324.862793,157.889023 
	C321.148804,148.993271 314.458588,142.635773 306.824097,137.207397 
	C304.594910,135.622345 301.807098,133.942474 299.232758,133.872498 
	C286.640320,133.530289 274.033508,133.717438 261.566742,133.717438 
	C259.084412,140.837616 264.807495,141.043503 268.057800,142.411392 
	C266.968536,182.126404 269.795593,221.425735 265.914246,261.373291 
	C271.710968,261.373291 277.308441,261.682312 282.855927,261.287994 
	C288.619507,260.878265 294.352722,259.896454 300.062531,258.944733 
	C302.475342,258.542572 304.997742,257.955170 307.124176,256.809509 
	C326.390839,246.429489 335.655243,230.173355 336.175476,208.322128 
	C336.594116,190.736862 330.463135,174.781845 324.862793,157.889023 
M234.773468,173.323288 
	C234.854279,171.176102 235.712952,168.544373 234.771912,167.033707 
	C234.007034,165.805832 231.105515,165.726364 229.111008,165.508423 
	C227.677124,165.351730 226.179733,165.930496 224.705170,165.968552 
	C207.855896,166.403427 196.128616,183.277634 201.583740,199.279694 
	C204.342651,207.372696 211.158142,212.536041 219.301636,212.702576 
	C228.453552,212.889725 235.859238,206.010300 236.694687,196.545456 
	C237.373032,188.860443 232.695740,184.560181 222.650864,182.825592 
	C220.783371,182.503098 219.273407,180.110153 217.598450,178.672745 
	C217.865601,178.142868 218.132767,177.612991 218.399918,177.083115 
	C220.708282,176.357819 222.976974,175.438156 225.335144,174.956940 
	C228.214691,174.369324 231.169357,174.149796 234.773468,173.323288 
z"/>
<path fill="#FF0303" opacity="1.000000" stroke="none" 
	d="
M107.126099,201.215302 
	C113.290527,186.417068 124.612213,177.397507 138.507645,171.563538 
	C142.742859,169.785385 142.924591,168.468445 140.650146,165.317917 
	C139.498230,163.722290 138.551132,161.968536 137.315674,160.445007 
	C118.126076,136.781036 134.575882,104.059357 157.944397,99.664711 
	C171.483994,97.118469 185.097092,99.043701 195.340408,108.729179 
	C205.839310,118.656349 211.010361,131.553207 207.757584,146.512939 
	C207.213440,149.015411 205.977829,151.600510 204.378845,153.601883 
	C195.674255,164.497070 185.892868,173.897293 169.897598,175.174011 
	C173.931473,180.518768 177.297333,185.280350 180.968613,189.793503 
	C203.934464,218.025711 182.403625,259.314270 152.207748,263.605164 
	C128.927704,266.913300 104.717941,247.907318 104.469032,224.254837 
	C104.389694,216.715714 106.128258,209.157455 107.126099,201.215302 
z"/>
<path fill="#FF0101" opacity="1.000000" stroke="none" 
	d="
M325.074280,158.207825 
	C330.463135,174.781845 336.594116,190.736862 336.175476,208.322128 
	C335.655243,230.173355 326.390839,246.429489 307.124176,256.809509 
	C304.997742,257.955170 302.475342,258.542572 300.062531,258.944733 
	C294.352722,259.896454 288.619507,260.878265 282.855927,261.287994 
	C277.308441,261.682312 271.710968,261.373291 265.914246,261.373291 
	C269.795593,221.425735 266.968536,182.126404 268.057800,142.411392 
	C264.807495,141.043503 259.084412,140.837616 261.566742,133.717438 
	C274.033508,133.717438 286.640320,133.530289 299.232758,133.872498 
	C301.807098,133.942474 304.594910,135.622345 306.824097,137.207397 
	C314.458588,142.635773 321.148804,148.993271 325.074280,158.207825 
z"/>
<path fill="#FF0808" opacity="1.000000" stroke="none" 
	d="
M234.432495,173.547180 
	C231.169357,174.149796 228.214691,174.369324 225.335144,174.956940 
	C222.976974,175.438156 220.708282,176.357819 218.399918,177.083115 
	C218.132767,177.612991 217.865601,178.142868 217.598450,178.672745 
	C219.273407,180.110153 220.783371,182.503098 222.650864,182.825592 
	C232.695740,184.560181 237.373032,188.860443 236.694687,196.545456 
	C235.859238,206.010300 228.453552,212.889725 219.301636,212.702576 
	C211.158142,212.536041 204.342651,207.372696 201.583740,199.279694 
	C196.128616,183.277634 207.855896,166.403427 224.705170,165.968552 
	C226.179733,165.930496 227.677124,165.351730 229.111008,165.508423 
	C231.105515,165.726364 234.007034,165.805832 234.771912,167.033707 
	C235.712952,168.544373 234.854279,171.176102 234.432495,173.547180 
z"/>
</svg>