
<svg xmlns="http://www.w3.org/2000/svg" version="1.1" xmlns:xlink="http://www.w3.org/1999/xlink" preserveAspectRatio="none" x="0px" y="0px" width="32px" height="32px" viewBox="0 0 32 32">
<defs/>

<g id="Layer_3">
<g>
<g>
<g>
<path fill="#FF0000" stroke="none" d="
M 23.25 9.85
L 22.3 7.85 19.8 6.7
Q 18.75 8 17.7 8.15 14.4 7 12.55 5.2 6.1 4.55 2.1 9.85 -2.75 17.9 4.5 24.8
L 26.6 24.8
Q 31.75 24.3 31.85 17.7 32 11.15 26.6 10.4 23.7 11.1 23.25 9.85
M 23.6 11.9
L 26.4 11.95
Q 30 12.75 29.9 17.85 29.3 22.25 26.6 22.95
L 22.45 22.95
Q 23.4 22.35 23.5 22.3
L 23.6 11.9
M 20.45 17.3
Q 20.55 17.5185546875 20.55 17.75 20.55 18.35 20.1 18.75 19.7 19.2 19.1 19.2 18.5966796875 19.2 18.2 18.85 17.8349609375 18.6298828125 17.3 17.8 16.608984375 16.675390625 16.7 16.45 16.8802734375 16.2142578125 18.75 15.15 20.6197265625 14.080078125 20.3 15 18.28671875 16.2689453125 18.8 16.15 18.93984375 16.15 19.1 16.15 19.7 16.15 20.1 16.55 20.4169921875 16.8669921875 20.45 17.3
M 11.45 9.5
Q 12.6 8.45 14.2 8.45 15.9 8.45 17.05 9.5 18.2 10.55 18.2 12 18.2 13.45 17.05 14.5 15.9 15.55 14.2 15.55 14.05 15.55 13.85 15.55
L 13.85 15.6
Q 14.6 15.9 15.2 16.45 16.4 17.65 16.4 19.3 16.4 20.95 15.2 22.1 14 23.3 12.3 23.3 10.55 23.3 9.3 22.1 8.1 20.95 8.1 19.3 8.1 17.65 9.3 16.45 10.3 15.55 11.55 15.35 11.9 15.3 12.3 15.3 12.45 15.3 12.6 15.3
L 12.6 15.25
Q 11.95 15 11.45 14.5 10.3 13.45 10.3 12 10.3 10.55 11.45 9.5 Z"/>

<path fill="#000000" stroke="none" d="
M 14.2 8.45
Q 12.6 8.45 11.45 9.5 10.3 10.55 10.3 12 10.3 13.45 11.45 14.5 11.95 15 12.6 15.25
L 12.6 15.3
Q 12.45 15.3 12.3 15.3 11.9 15.3 11.55 15.35 10.3 15.55 9.3 16.45 8.1 17.65 8.1 19.3 8.1 20.95 9.3 22.1 10.55 23.3 12.3 23.3 14 23.3 15.2 22.1 16.4 20.95 16.4 19.3 16.4 17.65 15.2 16.45 14.6 15.9 13.85 15.6
L 13.85 15.55
Q 14.05 15.55 14.2 15.55 15.9 15.55 17.05 14.5 18.2 13.45 18.2 12 18.2 10.55 17.05 9.5 15.9 8.45 14.2 8.45
M 20.55 17.75
Q 20.55 17.5185546875 20.45 17.3 20.4169921875 16.8669921875 20.1 16.55 19.7 16.15 19.1 16.15 18.93984375 16.15 18.8 16.15 18.28671875 16.2689453125 20.3 15 20.6197265625 14.080078125 18.75 15.15 16.8802734375 16.2142578125 16.7 16.45 16.608984375 16.675390625 17.3 17.8 17.8349609375 18.6298828125 18.2 18.85 18.5966796875 19.2 19.1 19.2 19.7 19.2 20.1 18.75 20.55 18.35 20.55 17.75
M 26.4 11.95
L 23.6 11.9 23.5 22.3
Q 23.4 22.35 22.45 22.95
L 26.6 22.95
Q 29.3 22.25 29.9 17.85 30 12.75 26.4 11.95 Z"/>
</g>
</g>
</g>
</g>
</svg>
